<?xml version="1.0" encoding="UTF-8" standalone="no"?>
<!-- Generator: Adobe Illustrator 16.0.4, SVG Export Plug-In . SVG Version: 6.00 Build 0)  -->

<svg
   xmlns:dc="http://purl.org/dc/elements/1.1/"
   xmlns:cc="http://creativecommons.org/ns#"
   xmlns:rdf="http://www.w3.org/1999/02/22-rdf-syntax-ns#"
   xmlns:svg="http://www.w3.org/2000/svg"
   xmlns="http://www.w3.org/2000/svg"
   xmlns:sodipodi="http://sodipodi.sourceforge.net/DTD/sodipodi-0.dtd"
   xmlns:inkscape="http://www.inkscape.org/namespaces/inkscape"
   sodipodi:docname="angularjs-bb8c730bb5b75b4d49ed14cc6318eb6d.svg"
   inkscape:version="0.48.4 r9939"
   xml:space="preserve"
   enable-background="new 0 0 379.992 402.527"
   viewBox="0 0 379.992 402.527"
   height="402.527px"
   width="379.992px"
   y="0px"
   x="0px"
   id="Layer_1"
   version="1.1"><metadata
     id="metadata24"><rdf:RDF><cc:Work
         rdf:about=""><dc:format>image/svg+xml</dc:format><dc:type
           rdf:resource="http://purl.org/dc/dcmitype/StillImage" /></cc:Work></rdf:RDF></metadata><defs
     id="defs22" /><sodipodi:namedview
     pagecolor="#ffffff"
     bordercolor="#666666"
     borderopacity="1"
     objecttolerance="10"
     gridtolerance="10"
     guidetolerance="10"
     inkscape:pageopacity="0"
     inkscape:pageshadow="2"
     inkscape:window-width="1366"
     inkscape:window-height="713"
     id="namedview20"
     showgrid="false"
     inkscape:zoom="0.70710678"
     inkscape:cx="182.40341"
     inkscape:cy="190.83281"
     inkscape:window-x="0"
     inkscape:window-y="30"
     inkscape:window-maximized="1"
     inkscape:current-layer="g4"
     inkscape:object-nodes="true"
     showguides="true"
     inkscape:guide-bbox="true"
     inkscape:snap-grids="true"><sodipodi:guide
       orientation="1,0"
       position="189.396,399.11576"
       id="guide3151" /><sodipodi:guide
       orientation="0,1"
       position="189.396,201.52543"
       id="guide4216" /></sodipodi:namedview><g
     id="g4"
     transform="translate(-2.1903267e-6,-3.42191)"><g
       id="g6"><g
         id="g8"
         transform="translate(0,3.4112458)"><path
           style="fill:#b2b2b2"
           inkscape:connector-curvature="0"
           id="path10"
           d="M 189.396,0 0,66.648 29.927,314.773 189.587,402.527 350.073,313.589 379.992,65.47 189.396,0 z" /><path
           style="fill:#4c75a3;fill-opacity:1"
           inkscape:connector-curvature="0"
           id="path14"
           d="m 21.259,80.868 25.647,221.917 142.046,78.777 V 21.094 L 21.259,80.868 z" /><path
           style="fill:#4c75a3;fill-opacity:1"
           inkscape:connector-curvature="0"
           id="path12"
           d="M 361.108,79.811 188.953,21.102 V 381.569 L 333.23,301.723 361.108,79.811 z" /></g></g><path
       d="m 186.36475,278.38236 15.61736,0 c 0,0 4.71631,-0.51984 7.12783,-3.11445 2.21647,-2.38484 2.14562,-6.86009 2.14562,-6.86009 0,0 -0.30547,-20.95565 9.41882,-24.04159 9.58995,-3.04177 21.90148,20.25271 34.95,29.21058 9.86782,6.77635 17.36644,5.29319 17.36644,5.29319 l 34.89388,-0.48764 c 0,0 18.25247,-1.12617 9.59731,-15.47751 -0.70846,-1.17218 -5.04202,-10.61584 -25.94522,-30.0184 -21.88125,-20.30794 -18.94804,-17.02235 7.40753,-52.14991 16.05073,-21.3927 22.46642,-34.45226 20.46157,-40.0454 -1.91008,-5.32908 -13.71649,-3.92136 -13.71649,-3.92136 l -39.28724,0.2429 c 0,0 -2.91481,-0.39655 -5.0733,0.89523 -2.11158,1.26326 -3.46685,4.21487 -3.46685,4.21487 0,0 -6.22064,16.55309 -14.51052,30.63302 -17.49433,29.70556 -24.49058,31.27797 -27.35018,29.43046 -6.65307,-4.29951 -4.99049,-17.2689 -4.99049,-26.4853 0,-28.78919 4.36668,-40.7925 -8.50334,-43.89958 -4.27008,-1.03049 -7.41581,-1.71226 -18.33804,-1.82359 -14.0192,-0.14261 -25.88173,0.0432 -32.60013,3.33435 -4.46973,2.18885 -7.91817,7.06526 -5.81672,7.34588 2.59738,0.34595 8.47666,1.58713 11.59388,5.82868 4.02717,5.47905 3.8864,17.77863 3.8864,17.77863 0,0 2.31399,33.88916 -5.40269,38.09758 -5.29503,2.8872 -12.55995,-3.00681 -28.15708,-29.95766 -7.98994,-13.80483 -14.02472,-29.06613 -14.02472,-29.06613 0,0 -1.16206,-2.85131 -3.23775,-4.37772 -2.51732,-1.84936 -6.03477,-2.43544 -6.03477,-2.43544 l -37.334833,0.24382 c 0,0 -5.60328,0.15641 -7.66241,2.59369 -1.83187,2.16954 -0.14628,6.65123 -0.14628,6.65123 0,0 29.227141,68.38188 62.324103,102.84242 30.35054,31.59909 64.80831,29.52524 64.80831,29.52524"
       id="path2442"
       style="fill:#ffffff;fill-opacity:1;fill-rule:evenodd;stroke:none"
       inkscape:connector-curvature="0" /><path
       style="opacity:0.2244898;fill:#000000;fill-opacity:1"
       inkscape:connector-curvature="0"
       id="path12-6"
       d="M 361.108,83.22226 188.953,24.513262 V 384.98025 L 333.23,305.13427 361.108,83.22226 z" /></g><g
     id="layer1"
     transform="matrix(0.39770189,0,0,0.39770189,4.4626263,-517.45798)"><g
       id="g3257" /></g></svg>